<?xml version="1.0" standalone="no"?>
<!DOCTYPE svg PUBLIC "-//W3C//DTD SVG 20010904//EN"
 "http://www.w3.org/TR/2001/REC-SVG-20010904/DTD/svg10.dtd">
<svg version="1.0" xmlns="http://www.w3.org/2000/svg"
 width="960.000000pt" height="960.000000pt" viewBox="0 0 960.000000 960.000000"
 preserveAspectRatio="xMidYMid meet">
<metadata>
Created by potrace 1.11, written by Peter Selinger 2001-2013
</metadata>
<g transform="translate(0.000000,960.000000) scale(0.100000,-0.100000)"
fill="#000000" stroke="none">
<path d="M4516 9540 c-15 -5 -74 -10 -130 -11 -55 -1 -112 -5 -126 -10 -14 -4
-47 -10 -75 -13 -131 -13 -205 -31 -275 -66 -31 -15 -71 -31 -90 -34 -19 -4
-62 -16 -95 -26 -33 -10 -98 -29 -145 -43 -47 -14 -132 -38 -190 -52 -139 -35
-317 -95 -413 -139 -76 -35 -102 -41 -221 -51 -54 -5 -65 -9 -93 -41 -21 -23
-44 -37 -65 -40 -31 -5 -119 -61 -413 -265 -102 -70 -269 -208 -404 -334 -106
-100 -461 -458 -461 -466 0 -19 -58 -73 -103 -95 -99 -51 -207 -172 -304 -344
-33 -58 -92 -154 -132 -213 -44 -65 -74 -121 -76 -139 -1 -19 -13 -40 -32 -57
-17 -14 -39 -48 -49 -76 -10 -27 -33 -76 -52 -109 -54 -92 -85 -167 -151 -364
-34 -100 -71 -204 -82 -230 -27 -61 -59 -160 -59 -181 0 -10 -7 -26 -15 -37
-8 -10 -15 -34 -15 -52 0 -18 -7 -46 -15 -62 -8 -15 -20 -61 -26 -100 -6 -40
-22 -102 -36 -138 -13 -36 -26 -84 -29 -106 -11 -92 -15 -109 -34 -164 -23
-64 -62 -199 -65 -222 -1 -8 -5 -35 -10 -60 -4 -25 -9 -110 -10 -190 -1 -80
-7 -171 -14 -203 -14 -63 -11 -110 9 -147 7 -13 14 -46 15 -74 1 -28 8 -63 14
-79 6 -15 13 -62 17 -105 3 -42 10 -94 15 -114 5 -20 12 -56 15 -80 3 -24 11
-59 18 -78 7 -19 14 -57 15 -85 1 -27 13 -97 26 -155 14 -58 27 -118 30 -135
12 -70 18 -95 55 -224 22 -75 42 -158 45 -185 3 -27 17 -74 31 -105 20 -44 89
-232 108 -296 7 -25 37 -92 98 -225 24 -53 52 -96 73 -115 25 -22 67 -94 150
-259 63 -125 115 -234 115 -240 0 -18 78 -126 131 -183 25 -26 108 -104 185
-173 76 -68 191 -176 254 -240 74 -74 167 -153 259 -220 123 -90 288 -215 328
-250 7 -6 54 -37 105 -69 51 -32 190 -122 308 -201 243 -160 305 -193 545
-284 94 -35 215 -84 270 -109 55 -24 156 -66 225 -93 109 -42 135 -48 205 -49
77 -2 267 -36 311 -57 12 -6 40 -11 61 -12 22 0 46 -6 54 -12 8 -7 48 -15 89
-18 75 -7 123 -13 170 -22 14 -2 63 -7 110 -10 47 -3 103 -11 125 -18 27 -8
117 -11 285 -9 145 1 267 -2 300 -9 30 -6 70 -12 89 -13 38 -2 158 18 261 45
19 5 112 25 205 44 202 42 233 50 305 83 76 35 121 49 227 72 114 25 186 53
367 145 131 67 167 80 293 101 48 8 72 19 133 60 30 21 112 73 182 116 217
134 372 240 483 331 6 5 44 33 85 64 191 140 234 183 294 291 58 103 119 172
200 224 53 35 71 58 200 251 77 118 179 262 226 322 257 330 306 408 390 621
29 72 71 171 95 220 37 76 81 184 90 220 1 6 5 17 8 25 26 64 144 413 171 508
73 252 96 350 101 432 3 47 6 94 7 105 4 31 -12 138 -24 162 -8 16 -7 34 2 68
15 54 20 370 7 430 -5 22 -10 74 -12 116 -2 42 -8 86 -15 99 -6 12 -14 52 -16
88 -2 36 -7 75 -10 86 -4 12 -8 30 -10 41 -1 11 -7 45 -13 75 -5 30 -12 89
-16 130 -3 41 -8 84 -10 95 -2 11 -7 47 -10 80 -4 32 -8 62 -10 65 -1 3 -6 33
-9 68 -11 104 -37 168 -124 310 -28 46 -67 124 -86 174 -25 62 -56 118 -104
182 -78 104 -91 125 -128 216 -102 251 -331 612 -428 676 -14 8 -53 66 -87
127 -125 224 -217 348 -368 495 -199 195 -361 346 -445 415 -21 18 -43 37 -50
42 -19 18 -217 158 -294 208 -78 51 -163 93 -257 127 -140 50 -252 100 -445
198 -113 57 -250 119 -305 139 -55 19 -127 44 -160 55 -33 12 -123 38 -200 58
-77 21 -194 54 -260 74 -66 20 -133 39 -149 42 -16 3 -36 8 -43 13 -8 4 -44 3
-80 -2 -46 -7 -76 -6 -97 1 -17 6 -56 14 -86 17 -30 3 -59 10 -65 15 -6 5 -38
12 -71 15 -100 11 -567 14 -598 5z m599 -733 c17 -3 55 -8 85 -12 30 -4 57 -8
60 -10 3 -2 77 -20 165 -41 147 -34 173 -37 325 -39 157 -2 169 -4 245 -32 98
-37 571 -274 678 -340 43 -26 86 -52 95 -58 10 -5 102 -64 205 -130 103 -66
195 -125 204 -130 10 -6 43 -27 73 -47 225 -151 275 -193 317 -268 55 -97 114
-178 179 -247 38 -39 98 -102 134 -140 138 -143 160 -172 384 -516 138 -212
141 -218 151 -282 11 -75 35 -131 107 -246 88 -140 173 -361 205 -529 2 -14
12 -55 22 -92 10 -37 19 -106 20 -155 1 -48 6 -92 12 -97 5 -6 9 -23 9 -39 0
-15 5 -38 12 -50 8 -15 12 -106 14 -302 1 -250 6 -366 20 -445 2 -14 4 -68 5
-120 0 -147 -16 -265 -57 -419 -14 -51 -27 -105 -29 -120 -9 -68 -51 -207 -75
-249 -36 -61 -83 -195 -87 -247 -5 -50 -12 -69 -47 -115 -63 -85 -77 -107
-161 -251 -43 -74 -134 -222 -203 -329 -69 -107 -170 -269 -226 -360 -55 -91
-104 -169 -108 -175 -37 -45 -67 -74 -163 -151 -60 -48 -123 -101 -140 -116
-16 -15 -33 -28 -37 -28 -12 0 -92 -72 -116 -104 -59 -81 -83 -103 -182 -168
-58 -39 -136 -96 -175 -127 -130 -105 -127 -103 -440 -266 -71 -37 -177 -92
-234 -123 -75 -40 -117 -56 -150 -58 -25 -1 -71 -15 -101 -30 -72 -35 -219
-92 -256 -98 -16 -3 -45 -11 -64 -16 -19 -6 -76 -13 -125 -15 -196 -9 -282 61
-330 270 -4 17 -9 80 -10 141 -3 91 -7 119 -25 155 -26 51 -23 122 7 185 17
35 19 61 17 234 -1 181 -5 236 -20 296 -3 13 -1 45 5 71 18 73 20 360 4 456
-13 78 -11 245 3 268 8 13 12 201 13 661 1 262 5 379 13 384 6 4 68 8 138 9
70 2 135 5 146 8 10 3 44 9 74 12 154 17 161 21 268 127 l98 97 139 2 c92 1
159 7 195 17 30 8 69 15 85 14 99 -4 129 -3 175 8 50 12 138 9 162 -6 25 -16
284 -15 353 1 59 13 70 13 103 -1 43 -17 71 -13 127 23 57 36 102 99 112 158
11 61 9 99 -7 193 -11 68 -9 141 7 232 9 48 8 132 -1 215 -13 114 -14 139 -17
390 -1 132 -6 281 -12 332 -9 77 -8 95 5 114 27 42 -8 176 -64 240 l-23 26
-195 0 c-120 0 -218 -4 -255 -12 -60 -12 -96 -7 -180 25 -22 8 -129 7 -335 -5
-90 -4 -144 -3 -163 4 -20 8 -41 7 -76 -1 -83 -19 -111 -7 -206 88 -48 46 -90
82 -95 79 -4 -3 -21 0 -37 6 -58 24 -105 27 -172 12 -95 -21 -137 -22 -191 -8
-33 9 -116 12 -271 10 -187 -2 -236 -6 -295 -23 -63 -17 -75 -18 -104 -6 -18
8 -44 17 -59 20 -43 11 -451 12 -500 1 -79 -17 -312 -17 -344 0 -25 13 -33 13
-66 -1 -21 -8 -53 -12 -70 -10 -38 6 -117 -28 -126 -54 -8 -27 -95 -111 -129
-127 -17 -7 -141 -49 -276 -93 -135 -44 -319 -106 -410 -137 -91 -31 -234 -76
-318 -101 -162 -46 -590 -187 -623 -204 -10 -6 -26 -25 -36 -43 -14 -28 -16
-72 -14 -387 1 -195 5 -358 9 -362 4 -3 72 -29 152 -56 80 -28 183 -68 230
-90 47 -22 127 -54 179 -71 51 -18 143 -55 205 -82 131 -59 546 -207 752 -268
39 -11 79 -30 89 -41 10 -11 30 -20 45 -20 24 0 32 -9 69 -84 70 -143 109
-158 421 -160 178 -1 217 -4 226 -16 15 -20 44 -150 44 -197 0 -21 -5 -56 -11
-78 -12 -43 -16 -652 -5 -740 16 -125 18 -251 4 -305 -14 -58 -17 -484 -3
-545 3 -16 9 -73 11 -125 3 -52 10 -108 15 -124 5 -17 5 -33 0 -40 -30 -37
-46 -250 -21 -296 6 -11 8 -35 5 -53 -14 -79 -16 -138 -6 -170 7 -19 12 -84
13 -143 2 -131 -12 -169 -78 -215 -24 -17 -55 -41 -69 -55 -22 -22 -32 -25
-75 -20 -27 3 -70 12 -97 20 -26 8 -74 17 -105 20 -32 3 -66 10 -75 16 -10 5
-49 21 -87 35 -37 14 -89 40 -115 59 -32 24 -90 48 -196 81 -214 66 -321 113
-520 228 -105 61 -396 199 -428 203 -58 8 -97 39 -265 207 -284 286 -399 415
-612 687 -62 80 -134 168 -159 196 -60 66 -160 254 -171 319 -5 27 -11 61 -14
75 -9 44 -84 183 -131 245 -26 33 -58 82 -71 108 -38 73 -76 206 -88 302 -2
22 -12 60 -21 85 -9 25 -25 88 -35 140 -11 52 -26 118 -35 145 -9 28 -20 88
-25 135 -4 47 -13 99 -21 117 -11 27 -11 42 3 100 14 56 17 132 18 441 0 339
2 378 20 430 10 31 21 95 24 142 3 47 10 101 16 120 11 35 33 139 50 235 5 28
13 70 17 95 5 25 8 74 7 110 -2 75 4 91 60 145 32 32 45 55 60 110 11 39 27
84 36 100 59 104 117 196 146 232 38 46 110 194 143 296 30 91 78 161 210 307
63 69 141 162 175 206 33 45 86 110 116 144 54 62 356 366 421 426 19 17 45
43 58 57 13 15 35 30 50 34 14 3 33 16 42 28 10 11 41 34 71 50 29 16 91 56
138 90 47 33 127 89 178 124 88 61 96 64 156 65 57 2 68 6 102 36 73 64 346
171 624 245 8 2 42 14 75 25 33 12 83 24 110 27 28 3 73 13 100 22 37 13 58
16 80 9 19 -6 56 -5 100 2 131 21 250 43 270 50 20 7 596 4 650 -3z m-32
-2740 c58 -15 96 -15 199 -2 34 5 82 3 122 -5 97 -18 136 -19 188 -3 42 12 53
12 97 -3 43 -14 52 -21 66 -57 18 -44 27 -137 16 -155 -4 -7 -79 -13 -201 -16
-107 -3 -265 -8 -351 -12 -141 -5 -225 0 -319 21 -51 12 -144 14 -194 4 -28
-5 -62 -12 -76 -14 -14 -3 -40 -9 -59 -15 -34 -10 -205 -7 -271 5 -66 11 -169
13 -217 3 -105 -22 -133 -72 -138 -248 -5 -127 -12 -170 -35 -208 -20 -32 -59
-45 -61 -19 -1 17 -4 31 -27 119 -17 68 -21 141 -10 208 1 8 -1 34 -6 58 -5
27 -4 47 3 55 6 8 10 33 9 58 -1 59 20 104 73 161 l44 46 215 7 c232 7 281 7
320 0 73 -14 91 -14 135 0 33 9 73 12 124 9 49 -4 97 -1 136 9 69 16 136 14
218 -6z m-1591 -169 c3 -7 4 -78 4 -158 l-1 -145 -40 2 c-22 1 -92 4 -155 8
-63 4 -155 7 -205 8 -68 2 -96 6 -115 20 -13 9 -35 17 -48 17 -15 0 -21 4 -16
11 12 20 262 179 281 179 11 0 57 11 103 24 70 20 148 39 181 45 4 1 9 -5 11
-11z m2940 -8 c2 -7 123 -11 350 -11 296 0 348 -2 359 -15 7 -8 14 -40 15 -70
1 -30 7 -61 13 -68 17 -20 -45 -102 -64 -86 -7 6 -54 13 -104 15 -50 2 -96 7
-102 11 -28 17 -174 12 -234 -7 -41 -13 -71 -17 -95 -13 -19 4 -102 9 -185 10
-82 1 -161 3 -175 3 -25 1 -25 2 -23 88 1 49 2 92 2 96 2 16 71 37 123 37 29
0 60 5 68 10 20 13 47 13 52 0z"/>
</g>
</svg>
